<?xml version="1.0" standalone="no"?>
<!DOCTYPE svg PUBLIC "-//W3C//DTD SVG 20010904//EN"
 "http://www.w3.org/TR/2001/REC-SVG-20010904/DTD/svg10.dtd">
<svg version="1.0" xmlns="http://www.w3.org/2000/svg"
 width="32.000000pt" height="32.000000pt" viewBox="0 0 32.000000 32.000000"
 preserveAspectRatio="xMidYMid meet">

<g transform="translate(0.000000,32.000000) scale(0.100000,-0.100000)"
fill="#000000" stroke="none">
<path d="M22 158 l3 -133 138 -3 137 -3 0 136 0 135 -140 0 -141 0 3 -132z
m225 95 c-3 -16 -9 -37 -13 -47 -5 -14 -4 -17 4 -12 7 4 12 1 12 -8 0 -9 4
-16 9 -16 14 0 23 -36 16 -59 -3 -10 -30 -31 -59 -46 -59 -30 -91 -28 -101 6
-5 15 -13 19 -28 15 -31 -7 -52 35 -29 58 11 11 16 34 16 71 0 58 8 68 26 34
8 -14 15 -17 24 -10 7 6 17 6 26 1 9 -5 26 0 49 16 46 31 55 30 48 -3z"/>
<path d="M190 220 c-9 -6 -10 -10 -3 -10 6 0 15 5 18 10 8 12 4 12 -15 0z"/>
<path d="M90 191 c0 -6 5 -13 10 -16 6 -3 10 1 10 9 0 9 -4 16 -10 16 -5 0
-10 -4 -10 -9z"/>
<path d="M160 176 c0 -9 5 -16 10 -16 6 0 10 4 10 9 0 6 -4 13 -10 16 -5 3
-10 -1 -10 -9z"/>
<path d="M138 83 c7 -3 16 -2 19 1 4 3 -2 6 -13 5 -11 0 -14 -3 -6 -6z"/>
</g>
</svg>
